<svg 
 xmlns="http://www.w3.org/2000/svg"
 xmlns:xlink="http://www.w3.org/1999/xlink"
 width="660px" height="569px">
<defs>
<linearGradient id="PSgrad_0" x1="30.902%" x2="0%" y1="95.106%" y2="0%">
  <stop offset="0%" stop-color="rgb(7,29,104)" stop-opacity="1" />
  <stop offset="100%" stop-color="rgb(11,75,236)" stop-opacity="1" />
</linearGradient>

</defs>
<path fill-rule="evenodd"  opacity="0.251" fill="rgb(255, 255, 255)"
 d="M12.551,199.046 L113.494,37.194 C136.045,1.036 183.648,-10.001 219.819,12.541 L622.787,263.669 C658.958,286.211 670.000,333.796 647.449,369.953 L546.506,531.805 C523.955,567.962 476.352,578.999 440.181,556.457 L37.213,305.329 C1.042,282.788 -10.000,235.203 12.551,199.046 Z"/>
<path fill="url(#PSgrad_0)"
 d="M12.551,199.046 L113.494,37.194 C136.045,1.036 183.648,-10.001 219.819,12.541 L622.787,263.669 C658.958,286.211 670.000,333.796 647.449,369.953 L546.506,531.805 C523.955,567.962 476.352,578.999 440.181,556.457 L37.213,305.329 C1.042,282.788 -10.000,235.203 12.551,199.046 Z"/>
</svg>